<svg width="450" height="330" viewBox="0 0 450 330" fill="none" xmlns="http://www.w3.org/2000/svg">
<rect width="450" height="330" rx="8" fill="#F2EEDD"/>
<path d="M30.4766 224.842C30.3535 225.895 29.9639 226.708 29.3076 227.282C28.6559 227.852 27.7878 228.137 26.7031 228.137C25.5273 228.137 24.584 227.715 23.873 226.872C23.1667 226.029 22.8135 224.901 22.8135 223.488V222.531C22.8135 221.606 22.9775 220.793 23.3057 220.091C23.6383 219.389 24.1077 218.851 24.7139 218.478C25.32 218.099 26.0218 217.91 26.8193 217.91C27.8766 217.91 28.7243 218.206 29.3623 218.799C30.0003 219.387 30.3717 220.202 30.4766 221.246H29.1572C29.0433 220.453 28.7949 219.879 28.4121 219.523C28.0339 219.168 27.5029 218.99 26.8193 218.99C25.9808 218.99 25.3223 219.3 24.8438 219.92C24.3698 220.54 24.1328 221.422 24.1328 222.565V223.529C24.1328 224.609 24.3584 225.468 24.8096 226.106C25.2607 226.744 25.8919 227.063 26.7031 227.063C27.4323 227.063 27.9906 226.899 28.3779 226.571C28.7699 226.239 29.0296 225.662 29.1572 224.842H30.4766ZM33.3408 221.499C33.9014 220.811 34.6305 220.467 35.5283 220.467C37.0915 220.467 37.8799 221.349 37.8936 223.112V228H36.6289V223.105C36.6243 222.572 36.5013 222.178 36.2598 221.923C36.0228 221.668 35.6514 221.54 35.1455 221.54C34.7354 221.54 34.3753 221.649 34.0654 221.868C33.7555 222.087 33.514 222.374 33.3408 222.729V228H32.0762V217.5H33.3408V221.499ZM42.8564 228.137C41.8538 228.137 41.0381 227.809 40.4092 227.152C39.7803 226.492 39.4658 225.61 39.4658 224.507V224.274C39.4658 223.541 39.6048 222.887 39.8828 222.312C40.1654 221.734 40.5573 221.283 41.0586 220.959C41.5645 220.631 42.1113 220.467 42.6992 220.467C43.6608 220.467 44.4082 220.784 44.9414 221.417C45.4746 222.05 45.7412 222.957 45.7412 224.138V224.664H40.7305C40.7487 225.393 40.9606 225.983 41.3662 226.435C41.7764 226.881 42.2959 227.104 42.9248 227.104C43.3714 227.104 43.7497 227.013 44.0596 226.831C44.3695 226.649 44.6406 226.407 44.873 226.106L45.6455 226.708C45.0257 227.66 44.096 228.137 42.8564 228.137ZM42.6992 221.506C42.1888 221.506 41.7604 221.693 41.4141 222.066C41.0677 222.436 40.8535 222.955 40.7715 223.625H44.4766V223.529C44.4401 222.887 44.2669 222.39 43.957 222.039C43.6471 221.684 43.2279 221.506 42.6992 221.506ZM50.1777 227.104C50.6289 227.104 51.0231 226.968 51.3604 226.694C51.6976 226.421 51.8844 226.079 51.9209 225.669H53.1172C53.0944 226.093 52.9486 226.496 52.6797 226.879C52.4108 227.262 52.0508 227.567 51.5996 227.795C51.153 228.023 50.679 228.137 50.1777 228.137C49.1706 228.137 48.3685 227.802 47.7715 227.132C47.179 226.457 46.8828 225.537 46.8828 224.37V224.158C46.8828 223.438 47.015 222.798 47.2793 222.237C47.5436 221.677 47.9219 221.242 48.4141 220.932C48.9108 220.622 49.4964 220.467 50.1709 220.467C51.0003 220.467 51.6885 220.715 52.2354 221.212C52.7868 221.709 53.0807 222.354 53.1172 223.146H51.9209C51.8844 222.668 51.7021 222.276 51.374 221.971C51.0505 221.661 50.6494 221.506 50.1709 221.506C49.5283 221.506 49.0293 221.738 48.6738 222.203C48.3229 222.663 48.1475 223.331 48.1475 224.206V224.445C48.1475 225.298 48.3229 225.954 48.6738 226.414C49.0247 226.874 49.526 227.104 50.1777 227.104ZM56.6035 224.575L55.8105 225.402V228H54.5459V217.5H55.8105V223.851L56.4873 223.037L58.791 220.604H60.3291L57.4512 223.693L60.6641 228H59.1807L56.6035 224.575ZM69.6738 228C69.6009 227.854 69.5417 227.594 69.4961 227.221C68.9082 227.831 68.2064 228.137 67.3906 228.137C66.6615 228.137 66.0622 227.932 65.5928 227.521C65.1279 227.107 64.8955 226.583 64.8955 225.949C64.8955 225.179 65.1872 224.582 65.7705 224.158C66.3584 223.73 67.1833 223.516 68.2451 223.516H69.4756V222.935C69.4756 222.493 69.3434 222.142 69.0791 221.882C68.8148 221.618 68.4251 221.485 67.9102 221.485C67.459 221.485 67.0807 221.599 66.7754 221.827C66.4701 222.055 66.3174 222.331 66.3174 222.654H65.0459C65.0459 222.285 65.1758 221.93 65.4355 221.588C65.6999 221.242 66.0553 220.968 66.502 220.768C66.9531 220.567 67.4476 220.467 67.9854 220.467C68.8376 220.467 69.5052 220.681 69.9883 221.109C70.4714 221.533 70.722 222.119 70.7402 222.866V226.271C70.7402 226.95 70.8268 227.49 71 227.891V228H69.6738ZM67.5752 227.036C67.9717 227.036 68.3477 226.934 68.7031 226.729C69.0586 226.523 69.3161 226.257 69.4756 225.929V224.411H68.4844C66.9349 224.411 66.1602 224.865 66.1602 225.771C66.1602 226.168 66.2923 226.478 66.5566 226.701C66.821 226.924 67.1605 227.036 67.5752 227.036ZM75.0537 226.284L76.8857 220.604H78.1777L75.5254 228H74.5615L71.8818 220.604H73.1738L75.0537 226.284ZM83.8516 228C83.7786 227.854 83.7194 227.594 83.6738 227.221C83.0859 227.831 82.3841 228.137 81.5684 228.137C80.8392 228.137 80.2399 227.932 79.7705 227.521C79.3057 227.107 79.0732 226.583 79.0732 225.949C79.0732 225.179 79.3649 224.582 79.9482 224.158C80.5361 223.73 81.361 223.516 82.4229 223.516H83.6533V222.935C83.6533 222.493 83.5212 222.142 83.2568 221.882C82.9925 221.618 82.6029 221.485 82.0879 221.485C81.6367 221.485 81.2585 221.599 80.9531 221.827C80.6478 222.055 80.4951 222.331 80.4951 222.654H79.2236C79.2236 222.285 79.3535 221.93 79.6133 221.588C79.8776 221.242 80.2331 220.968 80.6797 220.768C81.1309 220.567 81.6253 220.467 82.1631 220.467C83.0153 220.467 83.6829 220.681 84.166 221.109C84.6491 221.533 84.8997 222.119 84.918 222.866V226.271C84.918 226.95 85.0046 227.49 85.1777 227.891V228H83.8516ZM81.7529 227.036C82.1494 227.036 82.5254 226.934 82.8809 226.729C83.2363 226.523 83.4938 226.257 83.6533 225.929V224.411H82.6621C81.1126 224.411 80.3379 224.865 80.3379 225.771C80.3379 226.168 80.4701 226.478 80.7344 226.701C80.9987 226.924 81.3382 227.036 81.7529 227.036ZM88.2744 228H87.0098V220.604H88.2744V228ZM86.9072 218.642C86.9072 218.437 86.9688 218.263 87.0918 218.122C87.2194 217.981 87.4062 217.91 87.6523 217.91C87.8984 217.91 88.0853 217.981 88.2129 218.122C88.3405 218.263 88.4043 218.437 88.4043 218.642C88.4043 218.847 88.3405 219.018 88.2129 219.154C88.0853 219.291 87.8984 219.359 87.6523 219.359C87.4062 219.359 87.2194 219.291 87.0918 219.154C86.9688 219.018 86.9072 218.847 86.9072 218.642ZM91.6787 228H90.4141V217.5H91.6787V228ZM98.2754 228C98.2025 227.854 98.1432 227.594 98.0977 227.221C97.5098 227.831 96.8079 228.137 95.9922 228.137C95.263 228.137 94.6637 227.932 94.1943 227.521C93.7295 227.107 93.4971 226.583 93.4971 225.949C93.4971 225.179 93.7887 224.582 94.3721 224.158C94.96 223.73 95.7848 223.516 96.8467 223.516H98.0771V222.935C98.0771 222.493 97.945 222.142 97.6807 221.882C97.4163 221.618 97.0267 221.485 96.5117 221.485C96.0605 221.485 95.6823 221.599 95.377 221.827C95.0716 222.055 94.9189 222.331 94.9189 222.654H93.6475C93.6475 222.285 93.7773 221.93 94.0371 221.588C94.3014 221.242 94.6569 220.968 95.1035 220.768C95.5547 220.567 96.0492 220.467 96.5869 220.467C97.4391 220.467 98.1068 220.681 98.5898 221.109C99.0729 221.533 99.3236 222.119 99.3418 222.866V226.271C99.3418 226.95 99.4284 227.49 99.6016 227.891V228H98.2754ZM96.1768 227.036C96.5732 227.036 96.9492 226.934 97.3047 226.729C97.6602 226.523 97.9176 226.257 98.0771 225.929V224.411H97.0859C95.5365 224.411 94.7617 224.865 94.7617 225.771C94.7617 226.168 94.8939 226.478 95.1582 226.701C95.4225 226.924 95.762 227.036 96.1768 227.036ZM107.586 224.384C107.586 225.514 107.326 226.423 106.807 227.111C106.287 227.795 105.59 228.137 104.715 228.137C103.781 228.137 103.058 227.806 102.548 227.146L102.486 228H101.324V217.5H102.589V221.417C103.099 220.784 103.803 220.467 104.701 220.467C105.599 220.467 106.303 220.806 106.813 221.485C107.328 222.164 107.586 223.094 107.586 224.274V224.384ZM106.321 224.24C106.321 223.379 106.155 222.714 105.822 222.244C105.49 221.775 105.011 221.54 104.387 221.54C103.553 221.54 102.953 221.927 102.589 222.702V225.901C102.976 226.676 103.58 227.063 104.4 227.063C105.007 227.063 105.478 226.829 105.815 226.359C106.153 225.89 106.321 225.184 106.321 224.24ZM110.56 228H109.295V220.604H110.56V228ZM109.192 218.642C109.192 218.437 109.254 218.263 109.377 218.122C109.505 217.981 109.691 217.91 109.938 217.91C110.184 217.91 110.37 217.981 110.498 218.122C110.626 218.263 110.689 218.437 110.689 218.642C110.689 218.847 110.626 219.018 110.498 219.154C110.37 219.291 110.184 219.359 109.938 219.359C109.691 219.359 109.505 219.291 109.377 219.154C109.254 219.018 109.192 218.847 109.192 218.642ZM113.964 228H112.699V217.5H113.964V228ZM117.368 228H116.104V220.604H117.368V228ZM116.001 218.642C116.001 218.437 116.062 218.263 116.186 218.122C116.313 217.981 116.5 217.91 116.746 217.91C116.992 217.91 117.179 217.981 117.307 218.122C117.434 218.263 117.498 218.437 117.498 218.642C117.498 218.847 117.434 219.018 117.307 219.154C117.179 219.291 116.992 219.359 116.746 219.359C116.5 219.359 116.313 219.291 116.186 219.154C116.062 219.018 116.001 218.847 116.001 218.642ZM121.114 218.812V220.604H122.495V221.581H121.114V226.168C121.114 226.464 121.176 226.688 121.299 226.838C121.422 226.984 121.632 227.057 121.928 227.057C122.074 227.057 122.274 227.029 122.529 226.975V228C122.197 228.091 121.873 228.137 121.559 228.137C120.993 228.137 120.567 227.966 120.28 227.624C119.993 227.282 119.85 226.797 119.85 226.168V221.581H118.503V220.604H119.85V218.812H121.114ZM126.398 226.147L128.121 220.604H129.475L126.501 229.142C126.041 230.372 125.309 230.987 124.307 230.987L124.067 230.967L123.596 230.878V229.853L123.938 229.88C124.366 229.88 124.699 229.793 124.936 229.62C125.177 229.447 125.375 229.13 125.53 228.67L125.811 227.918L123.172 220.604H124.553L126.398 226.147ZM133.774 224.24C133.774 223.105 134.043 222.194 134.581 221.506C135.119 220.813 135.823 220.467 136.693 220.467C137.559 220.467 138.245 220.763 138.751 221.355V217.5H140.016V228H138.854L138.792 227.207C138.286 227.827 137.582 228.137 136.68 228.137C135.823 228.137 135.123 227.786 134.581 227.084C134.043 226.382 133.774 225.466 133.774 224.336V224.24ZM135.039 224.384C135.039 225.222 135.212 225.879 135.559 226.353C135.905 226.826 136.383 227.063 136.994 227.063C137.796 227.063 138.382 226.703 138.751 225.983V222.586C138.373 221.889 137.792 221.54 137.008 221.54C136.388 221.54 135.905 221.779 135.559 222.258C135.212 222.736 135.039 223.445 135.039 224.384ZM146.551 227.269C146.059 227.847 145.336 228.137 144.384 228.137C143.595 228.137 142.994 227.909 142.579 227.453C142.169 226.993 141.962 226.314 141.957 225.416V220.604H143.222V225.382C143.222 226.503 143.677 227.063 144.589 227.063C145.555 227.063 146.198 226.703 146.517 225.983V220.604H147.781V228H146.578L146.551 227.269ZM153.284 221.738C153.093 221.706 152.885 221.69 152.662 221.69C151.833 221.69 151.27 222.044 150.974 222.75V228H149.709V220.604H150.939L150.96 221.458C151.375 220.797 151.963 220.467 152.724 220.467C152.97 220.467 153.157 220.499 153.284 220.562V221.738ZM155.827 228H154.562V220.604H155.827V228ZM154.46 218.642C154.46 218.437 154.521 218.263 154.645 218.122C154.772 217.981 154.959 217.91 155.205 217.91C155.451 217.91 155.638 217.981 155.766 218.122C155.893 218.263 155.957 218.437 155.957 218.642C155.957 218.847 155.893 219.018 155.766 219.154C155.638 219.291 155.451 219.359 155.205 219.359C154.959 219.359 154.772 219.291 154.645 219.154C154.521 219.018 154.46 218.847 154.46 218.642ZM159.054 220.604L159.095 221.533C159.66 220.822 160.398 220.467 161.31 220.467C162.873 220.467 163.661 221.349 163.675 223.112V228H162.41V223.105C162.406 222.572 162.283 222.178 162.041 221.923C161.804 221.668 161.433 221.54 160.927 221.54C160.517 221.54 160.157 221.649 159.847 221.868C159.537 222.087 159.295 222.374 159.122 222.729V228H157.857V220.604H159.054ZM165.281 224.24C165.281 223.087 165.548 222.171 166.081 221.492C166.614 220.809 167.321 220.467 168.2 220.467C169.103 220.467 169.807 220.786 170.312 221.424L170.374 220.604H171.529V227.822C171.529 228.779 171.244 229.534 170.675 230.085C170.11 230.636 169.349 230.912 168.392 230.912C167.858 230.912 167.337 230.798 166.826 230.57C166.316 230.342 165.926 230.03 165.657 229.634L166.313 228.875C166.856 229.545 167.519 229.88 168.303 229.88C168.918 229.88 169.396 229.707 169.738 229.36C170.085 229.014 170.258 228.526 170.258 227.897V227.262C169.752 227.845 169.062 228.137 168.187 228.137C167.321 228.137 166.619 227.788 166.081 227.091C165.548 226.394 165.281 225.443 165.281 224.24ZM166.553 224.384C166.553 225.218 166.724 225.874 167.065 226.353C167.407 226.826 167.886 227.063 168.501 227.063C169.299 227.063 169.884 226.701 170.258 225.977V222.6C169.87 221.893 169.289 221.54 168.515 221.54C167.899 221.54 167.419 221.779 167.072 222.258C166.726 222.736 166.553 223.445 166.553 224.384ZM178.112 220.604L178.153 221.533C178.718 220.822 179.457 220.467 180.368 220.467C181.931 220.467 182.72 221.349 182.733 223.112V228H181.469V223.105C181.464 222.572 181.341 222.178 181.1 221.923C180.863 221.668 180.491 221.54 179.985 221.54C179.575 221.54 179.215 221.649 178.905 221.868C178.595 222.087 178.354 222.374 178.181 222.729V228H176.916V220.604H178.112ZM187.71 228.137C186.707 228.137 185.892 227.809 185.263 227.152C184.634 226.492 184.319 225.61 184.319 224.507V224.274C184.319 223.541 184.458 222.887 184.736 222.312C185.019 221.734 185.411 221.283 185.912 220.959C186.418 220.631 186.965 220.467 187.553 220.467C188.514 220.467 189.262 220.784 189.795 221.417C190.328 222.05 190.595 222.957 190.595 224.138V224.664H185.584C185.602 225.393 185.814 225.983 186.22 226.435C186.63 226.881 187.149 227.104 187.778 227.104C188.225 227.104 188.603 227.013 188.913 226.831C189.223 226.649 189.494 226.407 189.727 226.106L190.499 226.708C189.879 227.66 188.95 228.137 187.71 228.137ZM187.553 221.506C187.042 221.506 186.614 221.693 186.268 222.066C185.921 222.436 185.707 222.955 185.625 223.625H189.33V223.529C189.294 222.887 189.12 222.39 188.811 222.039C188.501 221.684 188.081 221.506 187.553 221.506ZM194.546 223.304L196.187 220.604H197.663L195.243 224.261L197.738 228H196.275L194.566 225.231L192.857 228H191.388L193.883 224.261L191.463 220.604H192.926L194.546 223.304ZM200.726 218.812V220.604H202.106V221.581H200.726V226.168C200.726 226.464 200.787 226.688 200.91 226.838C201.033 226.984 201.243 227.057 201.539 227.057C201.685 227.057 201.885 227.029 202.141 226.975V228C201.808 228.091 201.484 228.137 201.17 228.137C200.605 228.137 200.179 227.966 199.892 227.624C199.604 227.282 199.461 226.797 199.461 226.168V221.581H198.114V220.604H199.461V218.812H200.726ZM208.252 220.604L208.286 221.424C208.828 220.786 209.56 220.467 210.48 220.467C211.515 220.467 212.219 220.863 212.593 221.656C212.839 221.301 213.158 221.014 213.55 220.795C213.946 220.576 214.413 220.467 214.951 220.467C216.574 220.467 217.398 221.326 217.426 223.044V228H216.161V223.119C216.161 222.59 216.04 222.196 215.799 221.937C215.557 221.672 215.152 221.54 214.582 221.54C214.113 221.54 213.723 221.681 213.413 221.964C213.103 222.242 212.923 222.618 212.873 223.092V228H211.602V223.153C211.602 222.078 211.075 221.54 210.022 221.54C209.193 221.54 208.626 221.893 208.32 222.6V228H207.056V220.604H208.252ZM219.005 224.233C219.005 223.509 219.146 222.857 219.429 222.278C219.716 221.7 220.112 221.253 220.618 220.938C221.129 220.624 221.71 220.467 222.361 220.467C223.368 220.467 224.182 220.815 224.802 221.513C225.426 222.21 225.738 223.137 225.738 224.295V224.384C225.738 225.104 225.599 225.751 225.321 226.325C225.048 226.895 224.654 227.339 224.139 227.658C223.628 227.977 223.04 228.137 222.375 228.137C221.372 228.137 220.559 227.788 219.935 227.091C219.315 226.394 219.005 225.471 219.005 224.322V224.233ZM220.276 224.384C220.276 225.204 220.465 225.863 220.844 226.359C221.227 226.856 221.737 227.104 222.375 227.104C223.018 227.104 223.528 226.854 223.906 226.353C224.285 225.847 224.474 225.14 224.474 224.233C224.474 223.422 224.28 222.766 223.893 222.265C223.51 221.759 222.999 221.506 222.361 221.506C221.737 221.506 221.233 221.754 220.851 222.251C220.468 222.748 220.276 223.459 220.276 224.384ZM228.521 220.604L228.562 221.533C229.127 220.822 229.865 220.467 230.776 220.467C232.34 220.467 233.128 221.349 233.142 223.112V228H231.877V223.105C231.872 222.572 231.749 222.178 231.508 221.923C231.271 221.668 230.899 221.54 230.394 221.54C229.983 221.54 229.623 221.649 229.313 221.868C229.004 222.087 228.762 222.374 228.589 222.729V228H227.324V220.604H228.521ZM236.765 218.812V220.604H238.146V221.581H236.765V226.168C236.765 226.464 236.826 226.688 236.949 226.838C237.072 226.984 237.282 227.057 237.578 227.057C237.724 227.057 237.924 227.029 238.18 226.975V228C237.847 228.091 237.523 228.137 237.209 228.137C236.644 228.137 236.218 227.966 235.931 227.624C235.644 227.282 235.5 226.797 235.5 226.168V221.581H234.153V220.604H235.5V218.812H236.765ZM240.894 221.499C241.454 220.811 242.183 220.467 243.081 220.467C244.644 220.467 245.433 221.349 245.446 223.112V228H244.182V223.105C244.177 222.572 244.054 222.178 243.812 221.923C243.576 221.668 243.204 221.54 242.698 221.54C242.288 221.54 241.928 221.649 241.618 221.868C241.308 222.087 241.067 222.374 240.894 222.729V228H239.629V217.5H240.894V221.499ZM251.646 226.038C251.646 225.696 251.517 225.432 251.257 225.245C251.002 225.054 250.553 224.89 249.91 224.753C249.272 224.616 248.764 224.452 248.386 224.261C248.012 224.069 247.734 223.841 247.552 223.577C247.374 223.313 247.285 222.998 247.285 222.634C247.285 222.028 247.54 221.515 248.051 221.096C248.566 220.676 249.222 220.467 250.02 220.467C250.858 220.467 251.537 220.683 252.057 221.116C252.581 221.549 252.843 222.103 252.843 222.777H251.571C251.571 222.431 251.423 222.132 251.127 221.882C250.835 221.631 250.466 221.506 250.02 221.506C249.559 221.506 249.199 221.606 248.939 221.807C248.68 222.007 248.55 222.269 248.55 222.593C248.55 222.898 248.671 223.128 248.912 223.283C249.154 223.438 249.589 223.586 250.218 223.728C250.851 223.869 251.364 224.037 251.756 224.233C252.148 224.429 252.437 224.666 252.624 224.944C252.815 225.218 252.911 225.553 252.911 225.949C252.911 226.61 252.647 227.141 252.118 227.542C251.59 227.938 250.904 228.137 250.061 228.137C249.468 228.137 248.944 228.032 248.488 227.822C248.033 227.613 247.675 227.321 247.415 226.947C247.16 226.569 247.032 226.161 247.032 225.724H248.297C248.32 226.147 248.488 226.485 248.803 226.735C249.122 226.981 249.541 227.104 250.061 227.104C250.539 227.104 250.922 227.009 251.209 226.817C251.501 226.621 251.646 226.362 251.646 226.038Z" fill="#444444"/>
<rect x="309" y="253" width="120" height="61" rx="8" fill="#D4D4D4"/>
<rect x="22" y="253" width="120" height="61" rx="8" fill="#D4D4D4"/>
<rect x="165" y="253" width="120" height="61" rx="8" fill="#D4D4D4"/>
<path d="M30.8115 39.3447C30.8115 40.32 30.6475 41.1722 30.3193 41.9014C29.9912 42.626 29.5264 43.1797 28.9248 43.5625C28.3232 43.9453 27.6214 44.1367 26.8193 44.1367C26.0355 44.1367 25.3405 43.9453 24.7344 43.5625C24.1283 43.1751 23.6566 42.626 23.3193 41.915C22.9867 41.1995 22.8158 40.3724 22.8066 39.4336V38.7158C22.8066 37.7588 22.973 36.9134 23.3057 36.1797C23.6383 35.446 24.1077 34.8854 24.7139 34.498C25.3245 34.1061 26.0218 33.9102 26.8057 33.9102C27.6032 33.9102 28.305 34.1038 28.9111 34.4912C29.5218 34.874 29.9912 35.4323 30.3193 36.166C30.6475 36.8952 30.8115 37.7451 30.8115 38.7158V39.3447ZM29.5059 38.7021C29.5059 37.5218 29.2689 36.6172 28.7949 35.9883C28.321 35.3548 27.6579 35.0381 26.8057 35.0381C25.9762 35.0381 25.3223 35.3548 24.8438 35.9883C24.3698 36.6172 24.126 37.4922 24.1123 38.6133V39.3447C24.1123 40.4886 24.3516 41.3887 24.8301 42.0449C25.3132 42.6966 25.9762 43.0225 26.8193 43.0225C27.667 43.0225 28.3232 42.7148 28.7881 42.0996C29.2529 41.4798 29.4922 40.5934 29.5059 39.4404V38.7021ZM37.1484 43.2686C36.6562 43.8473 35.9339 44.1367 34.9814 44.1367C34.193 44.1367 33.5915 43.9089 33.1768 43.4531C32.7666 42.9928 32.5592 42.3138 32.5547 41.416V36.6035H33.8193V41.3818C33.8193 42.5029 34.2751 43.0635 35.1865 43.0635C36.1527 43.0635 36.7952 42.7035 37.1143 41.9834V36.6035H38.3789V44H37.1758L37.1484 43.2686ZM42.0225 34.8125V36.6035H43.4033V37.5811H42.0225V42.168C42.0225 42.4642 42.084 42.6875 42.207 42.8379C42.3301 42.9837 42.5397 43.0566 42.8359 43.0566C42.9818 43.0566 43.1823 43.0293 43.4375 42.9746V44C43.1048 44.0911 42.7812 44.1367 42.4668 44.1367C41.9017 44.1367 41.4756 43.9658 41.1885 43.624C40.9014 43.2822 40.7578 42.7969 40.7578 42.168V37.5811H39.4111V36.6035H40.7578V34.8125H42.0225ZM48.0244 40.2334C48.0244 39.5088 48.1657 38.8571 48.4482 38.2783C48.7354 37.6995 49.1318 37.2529 49.6377 36.9385C50.1481 36.624 50.7292 36.4668 51.3809 36.4668C52.388 36.4668 53.2015 36.8154 53.8213 37.5127C54.4456 38.21 54.7578 39.1374 54.7578 40.2949V40.3838C54.7578 41.1038 54.6188 41.751 54.3408 42.3252C54.0674 42.8949 53.6732 43.3392 53.1582 43.6582C52.6478 43.9772 52.0599 44.1367 51.3945 44.1367C50.3919 44.1367 49.5785 43.7881 48.9541 43.0908C48.3343 42.3936 48.0244 41.4707 48.0244 40.3223V40.2334ZM49.2959 40.3838C49.2959 41.2041 49.485 41.8626 49.8633 42.3594C50.2461 42.8561 50.7565 43.1045 51.3945 43.1045C52.0371 43.1045 52.5475 42.8538 52.9258 42.3525C53.304 41.8467 53.4932 41.1403 53.4932 40.2334C53.4932 39.4222 53.2995 38.766 52.9121 38.2646C52.5293 37.7588 52.0189 37.5059 51.3809 37.5059C50.7565 37.5059 50.2529 37.7542 49.8701 38.251C49.4873 38.7477 49.2959 39.4587 49.2959 40.3838ZM56.9658 44V37.5811H55.7969V36.6035H56.9658V35.8447C56.9658 35.0518 57.1777 34.4388 57.6016 34.0059C58.0254 33.5729 58.6247 33.3564 59.3994 33.3564C59.6911 33.3564 59.9805 33.3952 60.2676 33.4727L60.1992 34.498C59.985 34.457 59.7572 34.4365 59.5156 34.4365C59.1055 34.4365 58.7887 34.5573 58.5654 34.7988C58.3421 35.0358 58.2305 35.3776 58.2305 35.8242V36.6035H59.8096V37.5811H58.2305V44H56.9658ZM68.9902 42.0381C68.9902 41.6963 68.8604 41.432 68.6006 41.2451C68.3454 41.0537 67.8965 40.8896 67.2539 40.7529C66.6159 40.6162 66.1077 40.4521 65.7295 40.2607C65.3558 40.0693 65.0778 39.8415 64.8955 39.5771C64.7178 39.3128 64.6289 38.9984 64.6289 38.6338C64.6289 38.0277 64.8841 37.515 65.3945 37.0957C65.9095 36.6764 66.5658 36.4668 67.3633 36.4668C68.2018 36.4668 68.8809 36.6833 69.4004 37.1162C69.9245 37.5492 70.1865 38.1029 70.1865 38.7773H68.915C68.915 38.431 68.7669 38.1325 68.4707 37.8818C68.179 37.6312 67.8099 37.5059 67.3633 37.5059C66.903 37.5059 66.543 37.6061 66.2832 37.8066C66.0234 38.0072 65.8936 38.2692 65.8936 38.5928C65.8936 38.8981 66.0143 39.1283 66.2559 39.2832C66.4974 39.4382 66.9326 39.5863 67.5615 39.7275C68.195 39.8688 68.7077 40.0374 69.0996 40.2334C69.4915 40.4294 69.7809 40.6663 69.9678 40.9443C70.1592 41.2178 70.2549 41.5527 70.2549 41.9492C70.2549 42.61 69.9906 43.141 69.4619 43.542C68.9333 43.9385 68.2474 44.1367 67.4043 44.1367C66.8118 44.1367 66.2878 44.0319 65.832 43.8223C65.3763 43.6126 65.0186 43.321 64.7588 42.9473C64.5036 42.569 64.376 42.1611 64.376 41.7236H65.6406C65.6634 42.1475 65.832 42.4847 66.1465 42.7354C66.4655 42.9814 66.8848 43.1045 67.4043 43.1045C67.8828 43.1045 68.2656 43.0088 68.5527 42.8174C68.8444 42.6214 68.9902 42.3617 68.9902 42.0381ZM74.9717 44.1367C73.9691 44.1367 73.1533 43.8086 72.5244 43.1523C71.8955 42.4915 71.5811 41.6097 71.5811 40.5068V40.2744C71.5811 39.5407 71.7201 38.8867 71.998 38.3125C72.2806 37.7337 72.6725 37.2826 73.1738 36.959C73.6797 36.6309 74.2266 36.4668 74.8145 36.4668C75.776 36.4668 76.5234 36.7835 77.0566 37.417C77.5898 38.0505 77.8564 38.9574 77.8564 40.1377V40.6641H72.8457C72.8639 41.3932 73.0758 41.9834 73.4814 42.4346C73.8916 42.8812 74.4111 43.1045 75.04 43.1045C75.4867 43.1045 75.8649 43.0133 76.1748 42.8311C76.4847 42.6488 76.7559 42.4072 76.9883 42.1064L77.7607 42.708C77.141 43.6605 76.2113 44.1367 74.9717 44.1367ZM74.8145 37.5059C74.304 37.5059 73.8757 37.6927 73.5293 38.0664C73.1829 38.4355 72.9688 38.9551 72.8867 39.625H76.5918V39.5293C76.5553 38.8867 76.3822 38.39 76.0723 38.0391C75.7624 37.6836 75.3431 37.5059 74.8145 37.5059ZM82.9014 37.7383C82.71 37.7064 82.5026 37.6904 82.2793 37.6904C81.4499 37.6904 80.887 38.0436 80.5908 38.75V44H79.3262V36.6035H80.5566L80.5771 37.458C80.9919 36.7972 81.5798 36.4668 82.3408 36.4668C82.5869 36.4668 82.7738 36.4987 82.9014 36.5625V37.7383ZM86.6338 42.2842L88.4658 36.6035H89.7578L87.1055 44H86.1416L83.4619 36.6035H84.7539L86.6338 42.2842ZM92.3486 44H91.084V36.6035H92.3486V44ZM90.9814 34.6416C90.9814 34.4365 91.043 34.2633 91.166 34.1221C91.2936 33.9808 91.4805 33.9102 91.7266 33.9102C91.9727 33.9102 92.1595 33.9808 92.2871 34.1221C92.4147 34.2633 92.4785 34.4365 92.4785 34.6416C92.4785 34.8467 92.4147 35.0176 92.2871 35.1543C92.1595 35.291 91.9727 35.3594 91.7266 35.3594C91.4805 35.3594 91.2936 35.291 91.166 35.1543C91.043 35.0176 90.9814 34.8467 90.9814 34.6416ZM97.3457 43.1045C97.7969 43.1045 98.1911 42.9678 98.5283 42.6943C98.8656 42.4209 99.0524 42.0791 99.0889 41.6689H100.285C100.262 42.0928 100.117 42.4961 99.8477 42.8789C99.5788 43.2617 99.2188 43.5671 98.7676 43.7949C98.321 44.0228 97.847 44.1367 97.3457 44.1367C96.3385 44.1367 95.5365 43.8018 94.9395 43.1318C94.347 42.4574 94.0508 41.5368 94.0508 40.3701V40.1582C94.0508 39.4382 94.1829 38.7979 94.4473 38.2373C94.7116 37.6768 95.0898 37.2415 95.582 36.9316C96.0788 36.6217 96.6644 36.4668 97.3389 36.4668C98.1683 36.4668 98.8564 36.7152 99.4033 37.2119C99.9548 37.7087 100.249 38.3535 100.285 39.1465H99.0889C99.0524 38.668 98.8701 38.276 98.542 37.9707C98.2184 37.6608 97.8174 37.5059 97.3389 37.5059C96.6963 37.5059 96.1973 37.7383 95.8418 38.2031C95.4909 38.6634 95.3154 39.3311 95.3154 40.2061V40.4453C95.3154 41.2975 95.4909 41.9538 95.8418 42.4141C96.1927 42.8743 96.694 43.1045 97.3457 43.1045ZM104.776 44.1367C103.774 44.1367 102.958 43.8086 102.329 43.1523C101.7 42.4915 101.386 41.6097 101.386 40.5068V40.2744C101.386 39.5407 101.525 38.8867 101.803 38.3125C102.085 37.7337 102.477 37.2826 102.979 36.959C103.484 36.6309 104.031 36.4668 104.619 36.4668C105.581 36.4668 106.328 36.7835 106.861 37.417C107.395 38.0505 107.661 38.9574 107.661 40.1377V40.6641H102.65C102.669 41.3932 102.881 41.9834 103.286 42.4346C103.696 42.8812 104.216 43.1045 104.845 43.1045C105.291 43.1045 105.67 43.0133 105.979 42.8311C106.289 42.6488 106.561 42.4072 106.793 42.1064L107.565 42.708C106.946 43.6605 106.016 44.1367 104.776 44.1367ZM104.619 37.5059C104.109 37.5059 103.68 37.6927 103.334 38.0664C102.988 38.4355 102.773 38.9551 102.691 39.625H106.396V39.5293C106.36 38.8867 106.187 38.39 105.877 38.0391C105.567 37.6836 105.148 37.5059 104.619 37.5059ZM112.296 40.2402C112.296 39.1055 112.565 38.194 113.103 37.5059C113.64 36.8132 114.344 36.4668 115.215 36.4668C116.081 36.4668 116.767 36.763 117.272 37.3555V33.5H118.537V44H117.375L117.313 43.207C116.808 43.8268 116.104 44.1367 115.201 44.1367C114.344 44.1367 113.645 43.7858 113.103 43.084C112.565 42.3822 112.296 41.4661 112.296 40.3359V40.2402ZM113.561 40.3838C113.561 41.2223 113.734 41.8786 114.08 42.3525C114.426 42.8265 114.905 43.0635 115.516 43.0635C116.318 43.0635 116.903 42.7035 117.272 41.9834V38.5859C116.894 37.8887 116.313 37.54 115.529 37.54C114.91 37.54 114.426 37.7793 114.08 38.2578C113.734 38.7363 113.561 39.445 113.561 40.3838ZM125.072 44C124.999 43.8542 124.94 43.5944 124.895 43.2207C124.307 43.8314 123.605 44.1367 122.789 44.1367C122.06 44.1367 121.461 43.9316 120.991 43.5215C120.526 43.1068 120.294 42.5827 120.294 41.9492C120.294 41.179 120.586 40.582 121.169 40.1582C121.757 39.7298 122.582 39.5156 123.644 39.5156H124.874V38.9346C124.874 38.4925 124.742 38.1416 124.478 37.8818C124.213 37.6175 123.824 37.4854 123.309 37.4854C122.857 37.4854 122.479 37.5993 122.174 37.8271C121.868 38.055 121.716 38.3307 121.716 38.6543H120.444C120.444 38.2852 120.574 37.9297 120.834 37.5879C121.098 37.2415 121.454 36.9681 121.9 36.7676C122.352 36.5671 122.846 36.4668 123.384 36.4668C124.236 36.4668 124.904 36.681 125.387 37.1094C125.87 37.5332 126.12 38.1188 126.139 38.8662V42.2705C126.139 42.9495 126.225 43.4896 126.398 43.8906V44H125.072ZM122.974 43.0361C123.37 43.0361 123.746 42.9336 124.102 42.7285C124.457 42.5234 124.715 42.2568 124.874 41.9287V40.4111H123.883C122.333 40.4111 121.559 40.8646 121.559 41.7715C121.559 42.168 121.691 42.4779 121.955 42.7012C122.219 42.9245 122.559 43.0361 122.974 43.0361ZM130.432 42.1475L132.154 36.6035H133.508L130.534 45.1416C130.074 46.3721 129.342 46.9873 128.34 46.9873L128.101 46.9668L127.629 46.8779V45.8525L127.971 45.8799C128.399 45.8799 128.732 45.7933 128.969 45.6201C129.21 45.4469 129.409 45.1302 129.563 44.6699L129.844 43.918L127.205 36.6035H128.586L130.432 42.1475ZM138.949 42.0381C138.949 41.6963 138.819 41.432 138.56 41.2451C138.304 41.0537 137.855 40.8896 137.213 40.7529C136.575 40.6162 136.067 40.4521 135.688 40.2607C135.315 40.0693 135.037 39.8415 134.854 39.5771C134.677 39.3128 134.588 38.9984 134.588 38.6338C134.588 38.0277 134.843 37.515 135.354 37.0957C135.868 36.6764 136.525 36.4668 137.322 36.4668C138.161 36.4668 138.84 36.6833 139.359 37.1162C139.883 37.5492 140.146 38.1029 140.146 38.7773H138.874C138.874 38.431 138.726 38.1325 138.43 37.8818C138.138 37.6312 137.769 37.5059 137.322 37.5059C136.862 37.5059 136.502 37.6061 136.242 37.8066C135.982 38.0072 135.853 38.2692 135.853 38.5928C135.853 38.8981 135.973 39.1283 136.215 39.2832C136.456 39.4382 136.892 39.5863 137.521 39.7275C138.154 39.8688 138.667 40.0374 139.059 40.2334C139.451 40.4294 139.74 40.6663 139.927 40.9443C140.118 41.2178 140.214 41.5527 140.214 41.9492C140.214 42.61 139.95 43.141 139.421 43.542C138.892 43.9385 138.206 44.1367 137.363 44.1367C136.771 44.1367 136.247 44.0319 135.791 43.8223C135.335 43.6126 134.978 43.321 134.718 42.9473C134.463 42.569 134.335 42.1611 134.335 41.7236H135.6C135.622 42.1475 135.791 42.4847 136.105 42.7354C136.424 42.9814 136.844 43.1045 137.363 43.1045C137.842 43.1045 138.225 43.0088 138.512 42.8174C138.803 42.6214 138.949 42.3617 138.949 42.0381ZM146.708 44H145.443V36.6035H146.708V44ZM145.341 34.6416C145.341 34.4365 145.402 34.2633 145.525 34.1221C145.653 33.9808 145.84 33.9102 146.086 33.9102C146.332 33.9102 146.519 33.9808 146.646 34.1221C146.774 34.2633 146.838 34.4365 146.838 34.6416C146.838 34.8467 146.774 35.0176 146.646 35.1543C146.519 35.291 146.332 35.3594 146.086 35.3594C145.84 35.3594 145.653 35.291 145.525 35.1543C145.402 35.0176 145.341 34.8467 145.341 34.6416ZM149.935 36.6035L149.976 37.5332C150.541 36.8223 151.279 36.4668 152.19 36.4668C153.754 36.4668 154.542 37.3486 154.556 39.1123V44H153.291V39.1055C153.286 38.5723 153.163 38.1781 152.922 37.9229C152.685 37.6676 152.313 37.54 151.808 37.54C151.397 37.54 151.037 37.6494 150.728 37.8682C150.418 38.0869 150.176 38.374 150.003 38.7295V44H148.738V36.6035H149.935ZM170.381 39.5469H163.232L161.627 44H159.307L165.822 26.9375H167.791L174.318 44H172.01L170.381 39.5469ZM163.912 37.6953H169.713L166.807 29.7148L163.912 37.6953ZM186.986 37.8008C186.986 39.7305 186.545 41.2852 185.662 42.4648C184.779 43.6445 183.584 44.2344 182.076 44.2344C180.537 44.2344 179.326 43.7461 178.443 42.7695V48.875H176.275V31.3203H178.256L178.361 32.7266C179.244 31.6328 180.471 31.0859 182.041 31.0859C183.564 31.0859 184.768 31.6602 185.65 32.8086C186.541 33.957 186.986 35.5547 186.986 37.6016V37.8008ZM184.818 37.5547C184.818 36.125 184.514 34.9961 183.904 34.168C183.295 33.3398 182.459 32.9258 181.396 32.9258C180.084 32.9258 179.1 33.5078 178.443 34.6719V40.7305C179.092 41.8867 180.084 42.4648 181.42 42.4648C182.459 42.4648 183.283 42.0547 183.893 41.2344C184.51 40.4062 184.818 39.1797 184.818 37.5547ZM195.881 33.2656C195.553 33.2109 195.197 33.1836 194.814 33.1836C193.393 33.1836 192.428 33.7891 191.92 35V44H189.752V31.3203H191.861L191.896 32.7852C192.607 31.6523 193.615 31.0859 194.92 31.0859C195.342 31.0859 195.662 31.1406 195.881 31.25V33.2656ZM200.24 44H198.072V31.3203H200.24V44ZM197.896 27.957C197.896 27.6055 198.002 27.3086 198.213 27.0664C198.432 26.8242 198.752 26.7031 199.174 26.7031C199.596 26.7031 199.916 26.8242 200.135 27.0664C200.354 27.3086 200.463 27.6055 200.463 27.957C200.463 28.3086 200.354 28.6016 200.135 28.8359C199.916 29.0703 199.596 29.1875 199.174 29.1875C198.752 29.1875 198.432 29.0703 198.213 28.8359C198.002 28.6016 197.896 28.3086 197.896 27.957ZM206.076 44H203.908V26H206.076V44Z" fill="#444444"/>
<rect x="22" y="75" width="100" height="100" rx="8" fill="#444444"/>
<path d="M50.5195 149.849C51.0996 149.849 51.6064 149.673 52.04 149.321C52.4736 148.97 52.7139 148.53 52.7607 148.003H54.2988C54.2695 148.548 54.082 149.066 53.7363 149.559C53.3906 150.051 52.9277 150.443 52.3477 150.736C51.7734 151.029 51.1641 151.176 50.5195 151.176C49.2246 151.176 48.1934 150.745 47.4258 149.884C46.6641 149.017 46.2832 147.833 46.2832 146.333V146.061C46.2832 145.135 46.4531 144.312 46.793 143.591C47.1328 142.87 47.6191 142.311 48.252 141.912C48.8906 141.514 49.6436 141.314 50.5107 141.314C51.5771 141.314 52.4619 141.634 53.165 142.272C53.874 142.911 54.252 143.74 54.2988 144.76H52.7607C52.7139 144.145 52.4795 143.641 52.0576 143.248C51.6416 142.85 51.126 142.65 50.5107 142.65C49.6846 142.65 49.043 142.949 48.5859 143.547C48.1348 144.139 47.9092 144.997 47.9092 146.122V146.43C47.9092 147.525 48.1348 148.369 48.5859 148.961C49.0371 149.553 49.6816 149.849 50.5195 149.849ZM57.8936 151H56.2676V137.5H57.8936V151ZM60.0732 146.157C60.0732 145.226 60.2549 144.388 60.6182 143.644C60.9873 142.899 61.4971 142.325 62.1475 141.921C62.8037 141.517 63.5508 141.314 64.3887 141.314C65.6836 141.314 66.7295 141.763 67.5264 142.659C68.3291 143.556 68.7305 144.748 68.7305 146.236V146.351C68.7305 147.276 68.5518 148.108 68.1943 148.847C67.8428 149.579 67.3359 150.15 66.6738 150.561C66.0176 150.971 65.2617 151.176 64.4062 151.176C63.1172 151.176 62.0713 150.728 61.2686 149.831C60.4717 148.935 60.0732 147.748 60.0732 146.271V146.157ZM61.708 146.351C61.708 147.405 61.9512 148.252 62.4375 148.891C62.9297 149.529 63.5859 149.849 64.4062 149.849C65.2324 149.849 65.8887 149.526 66.375 148.882C66.8613 148.231 67.1045 147.323 67.1045 146.157C67.1045 145.114 66.8555 144.271 66.3574 143.626C65.8652 142.976 65.209 142.65 64.3887 142.65C63.5859 142.65 62.9385 142.97 62.4463 143.608C61.9541 144.247 61.708 145.161 61.708 146.351ZM76.3066 148.478C76.3066 148.038 76.1396 147.698 75.8057 147.458C75.4775 147.212 74.9004 147.001 74.0742 146.825C73.2539 146.649 72.6006 146.438 72.1143 146.192C71.6338 145.946 71.2764 145.653 71.042 145.313C70.8135 144.974 70.6992 144.569 70.6992 144.101C70.6992 143.321 71.0273 142.662 71.6836 142.123C72.3457 141.584 73.1895 141.314 74.2148 141.314C75.293 141.314 76.166 141.593 76.834 142.149C77.5078 142.706 77.8447 143.418 77.8447 144.285H76.21C76.21 143.84 76.0195 143.456 75.6387 143.134C75.2637 142.812 74.7891 142.65 74.2148 142.65C73.623 142.65 73.1602 142.779 72.8262 143.037C72.4922 143.295 72.3252 143.632 72.3252 144.048C72.3252 144.44 72.4805 144.736 72.791 144.936C73.1016 145.135 73.6611 145.325 74.4697 145.507C75.2842 145.688 75.9434 145.905 76.4473 146.157C76.9512 146.409 77.3232 146.714 77.5635 147.071C77.8096 147.423 77.9326 147.854 77.9326 148.363C77.9326 149.213 77.5928 149.896 76.9131 150.411C76.2334 150.921 75.3516 151.176 74.2676 151.176C73.5059 151.176 72.832 151.041 72.2461 150.771C71.6602 150.502 71.2002 150.127 70.8662 149.646C70.5381 149.16 70.374 148.636 70.374 148.073H72C72.0293 148.618 72.2461 149.052 72.6504 149.374C73.0605 149.69 73.5996 149.849 74.2676 149.849C74.8828 149.849 75.375 149.726 75.7441 149.479C76.1191 149.228 76.3066 148.894 76.3066 148.478ZM83.9971 151.176C82.708 151.176 81.6592 150.754 80.8506 149.91C80.042 149.061 79.6377 147.927 79.6377 146.509V146.21C79.6377 145.267 79.8164 144.426 80.1738 143.688C80.5371 142.943 81.041 142.363 81.6855 141.947C82.3359 141.525 83.0391 141.314 83.7949 141.314C85.0312 141.314 85.9922 141.722 86.6777 142.536C87.3633 143.351 87.7061 144.517 87.7061 146.034V146.711H81.2637C81.2871 147.648 81.5596 148.407 82.0811 148.987C82.6084 149.562 83.2764 149.849 84.085 149.849C84.6592 149.849 85.1455 149.731 85.5439 149.497C85.9424 149.263 86.291 148.952 86.5898 148.565L87.583 149.339C86.7861 150.563 85.5908 151.176 83.9971 151.176ZM83.7949 142.65C83.1387 142.65 82.5879 142.891 82.1426 143.371C81.6973 143.846 81.4219 144.514 81.3164 145.375H86.0801V145.252C86.0332 144.426 85.8105 143.787 85.4121 143.336C85.0137 142.879 84.4746 142.65 83.7949 142.65ZM89.2002 146.166C89.2002 144.707 89.5459 143.535 90.2373 142.65C90.9287 141.76 91.834 141.314 92.9531 141.314C94.0664 141.314 94.9482 141.695 95.5986 142.457V137.5H97.2246V151H95.7305L95.6514 149.98C95.001 150.777 94.0957 151.176 92.9355 151.176C91.834 151.176 90.9346 150.725 90.2373 149.822C89.5459 148.92 89.2002 147.742 89.2002 146.289V146.166ZM90.8262 146.351C90.8262 147.429 91.0488 148.272 91.4941 148.882C91.9395 149.491 92.5547 149.796 93.3398 149.796C94.3711 149.796 95.124 149.333 95.5986 148.407V144.039C95.1123 143.143 94.3652 142.694 93.3574 142.694C92.5605 142.694 91.9395 143.002 91.4941 143.617C91.0488 144.232 90.8262 145.144 90.8262 146.351Z" fill="#D4D4D4"/>
<path d="M77.748 116.404H81.2988V119.059H77.748V125H74.4785V119.059H62.8242V117.143L74.2852 99.4062H77.748V116.404ZM66.5156 116.404H74.4785V103.854L74.0918 104.557L66.5156 116.404Z" fill="#F2EEDD"/>
<rect x="142" y="75" width="100" height="100" rx="8" fill="#444444"/>
<path d="M170.52 149.849C171.1 149.849 171.606 149.673 172.04 149.321C172.474 148.97 172.714 148.53 172.761 148.003H174.299C174.27 148.548 174.082 149.066 173.736 149.559C173.391 150.051 172.928 150.443 172.348 150.736C171.773 151.029 171.164 151.176 170.52 151.176C169.225 151.176 168.193 150.745 167.426 149.884C166.664 149.017 166.283 147.833 166.283 146.333V146.061C166.283 145.135 166.453 144.312 166.793 143.591C167.133 142.87 167.619 142.311 168.252 141.912C168.891 141.514 169.644 141.314 170.511 141.314C171.577 141.314 172.462 141.634 173.165 142.272C173.874 142.911 174.252 143.74 174.299 144.76H172.761C172.714 144.145 172.479 143.641 172.058 143.248C171.642 142.85 171.126 142.65 170.511 142.65C169.685 142.65 169.043 142.949 168.586 143.547C168.135 144.139 167.909 144.997 167.909 146.122V146.43C167.909 147.525 168.135 148.369 168.586 148.961C169.037 149.553 169.682 149.849 170.52 149.849ZM177.894 151H176.268V137.5H177.894V151ZM180.073 146.157C180.073 145.226 180.255 144.388 180.618 143.644C180.987 142.899 181.497 142.325 182.147 141.921C182.804 141.517 183.551 141.314 184.389 141.314C185.684 141.314 186.729 141.763 187.526 142.659C188.329 143.556 188.73 144.748 188.73 146.236V146.351C188.73 147.276 188.552 148.108 188.194 148.847C187.843 149.579 187.336 150.15 186.674 150.561C186.018 150.971 185.262 151.176 184.406 151.176C183.117 151.176 182.071 150.728 181.269 149.831C180.472 148.935 180.073 147.748 180.073 146.271V146.157ZM181.708 146.351C181.708 147.405 181.951 148.252 182.438 148.891C182.93 149.529 183.586 149.849 184.406 149.849C185.232 149.849 185.889 149.526 186.375 148.882C186.861 148.231 187.104 147.323 187.104 146.157C187.104 145.114 186.855 144.271 186.357 143.626C185.865 142.976 185.209 142.65 184.389 142.65C183.586 142.65 182.938 142.97 182.446 143.608C181.954 144.247 181.708 145.161 181.708 146.351ZM196.307 148.478C196.307 148.038 196.14 147.698 195.806 147.458C195.478 147.212 194.9 147.001 194.074 146.825C193.254 146.649 192.601 146.438 192.114 146.192C191.634 145.946 191.276 145.653 191.042 145.313C190.813 144.974 190.699 144.569 190.699 144.101C190.699 143.321 191.027 142.662 191.684 142.123C192.346 141.584 193.189 141.314 194.215 141.314C195.293 141.314 196.166 141.593 196.834 142.149C197.508 142.706 197.845 143.418 197.845 144.285H196.21C196.21 143.84 196.02 143.456 195.639 143.134C195.264 142.812 194.789 142.65 194.215 142.65C193.623 142.65 193.16 142.779 192.826 143.037C192.492 143.295 192.325 143.632 192.325 144.048C192.325 144.44 192.48 144.736 192.791 144.936C193.102 145.135 193.661 145.325 194.47 145.507C195.284 145.688 195.943 145.905 196.447 146.157C196.951 146.409 197.323 146.714 197.563 147.071C197.81 147.423 197.933 147.854 197.933 148.363C197.933 149.213 197.593 149.896 196.913 150.411C196.233 150.921 195.352 151.176 194.268 151.176C193.506 151.176 192.832 151.041 192.246 150.771C191.66 150.502 191.2 150.127 190.866 149.646C190.538 149.16 190.374 148.636 190.374 148.073H192C192.029 148.618 192.246 149.052 192.65 149.374C193.061 149.69 193.6 149.849 194.268 149.849C194.883 149.849 195.375 149.726 195.744 149.479C196.119 149.228 196.307 148.894 196.307 148.478ZM203.997 151.176C202.708 151.176 201.659 150.754 200.851 149.91C200.042 149.061 199.638 147.927 199.638 146.509V146.21C199.638 145.267 199.816 144.426 200.174 143.688C200.537 142.943 201.041 142.363 201.686 141.947C202.336 141.525 203.039 141.314 203.795 141.314C205.031 141.314 205.992 141.722 206.678 142.536C207.363 143.351 207.706 144.517 207.706 146.034V146.711H201.264C201.287 147.648 201.56 148.407 202.081 148.987C202.608 149.562 203.276 149.849 204.085 149.849C204.659 149.849 205.146 149.731 205.544 149.497C205.942 149.263 206.291 148.952 206.59 148.565L207.583 149.339C206.786 150.563 205.591 151.176 203.997 151.176ZM203.795 142.65C203.139 142.65 202.588 142.891 202.143 143.371C201.697 143.846 201.422 144.514 201.316 145.375H206.08V145.252C206.033 144.426 205.811 143.787 205.412 143.336C205.014 142.879 204.475 142.65 203.795 142.65ZM209.2 146.166C209.2 144.707 209.546 143.535 210.237 142.65C210.929 141.76 211.834 141.314 212.953 141.314C214.066 141.314 214.948 141.695 215.599 142.457V137.5H217.225V151H215.73L215.651 149.98C215.001 150.777 214.096 151.176 212.936 151.176C211.834 151.176 210.935 150.725 210.237 149.822C209.546 148.92 209.2 147.742 209.2 146.289V146.166ZM210.826 146.351C210.826 147.429 211.049 148.272 211.494 148.882C211.939 149.491 212.555 149.796 213.34 149.796C214.371 149.796 215.124 149.333 215.599 148.407V144.039C215.112 143.143 214.365 142.694 213.357 142.694C212.561 142.694 211.939 143.002 211.494 143.617C211.049 144.232 210.826 145.144 210.826 146.351Z" fill="#D4D4D4"/>
<path d="M185.514 112.168L186.814 99.4062H199.928V102.412H189.574L188.801 109.391C190.055 108.652 191.479 108.283 193.072 108.283C195.404 108.283 197.256 109.057 198.627 110.604C199.998 112.139 200.684 114.219 200.684 116.844C200.684 119.48 199.969 121.561 198.539 123.084C197.121 124.596 195.135 125.352 192.58 125.352C190.318 125.352 188.473 124.725 187.043 123.471C185.613 122.217 184.799 120.482 184.6 118.268H187.676C187.875 119.732 188.396 120.84 189.24 121.59C190.084 122.328 191.197 122.697 192.58 122.697C194.092 122.697 195.275 122.182 196.131 121.15C196.998 120.119 197.432 118.695 197.432 116.879C197.432 115.168 196.963 113.797 196.025 112.766C195.1 111.723 193.863 111.201 192.316 111.201C190.898 111.201 189.785 111.512 188.977 112.133L188.115 112.836L185.514 112.168Z" fill="#F2EEDD"/>
<rect x="262" y="75" width="100" height="100" rx="8" fill="#888888"/>
<path d="M297.418 139.9C297.418 140.865 297.197 141.643 296.756 142.232C296.314 142.822 295.717 143.117 294.963 143.117C294.193 143.117 293.588 142.873 293.146 142.385V145.438H292.062V136.66H293.053L293.105 137.363C293.547 136.816 294.16 136.543 294.945 136.543C295.707 136.543 296.309 136.83 296.75 137.404C297.195 137.979 297.418 138.777 297.418 139.801V139.9ZM296.334 139.777C296.334 139.062 296.182 138.498 295.877 138.084C295.572 137.67 295.154 137.463 294.623 137.463C293.967 137.463 293.475 137.754 293.146 138.336V141.365C293.471 141.943 293.967 142.232 294.635 142.232C295.154 142.232 295.566 142.027 295.871 141.617C296.18 141.203 296.334 140.59 296.334 139.777ZM302.715 143C302.652 142.875 302.602 142.652 302.562 142.332C302.059 142.855 301.457 143.117 300.758 143.117C300.133 143.117 299.619 142.941 299.217 142.59C298.818 142.234 298.619 141.785 298.619 141.242C298.619 140.582 298.869 140.07 299.369 139.707C299.873 139.34 300.58 139.156 301.49 139.156H302.545V138.658C302.545 138.279 302.432 137.979 302.205 137.756C301.979 137.529 301.645 137.416 301.203 137.416C300.816 137.416 300.492 137.514 300.23 137.709C299.969 137.904 299.838 138.141 299.838 138.418H298.748C298.748 138.102 298.859 137.797 299.082 137.504C299.309 137.207 299.613 136.973 299.996 136.801C300.383 136.629 300.807 136.543 301.268 136.543C301.998 136.543 302.57 136.727 302.984 137.094C303.398 137.457 303.613 137.959 303.629 138.6V141.518C303.629 142.1 303.703 142.562 303.852 142.906V143H302.715ZM300.916 142.174C301.256 142.174 301.578 142.086 301.883 141.91C302.188 141.734 302.408 141.506 302.545 141.225V139.924H301.695C300.367 139.924 299.703 140.312 299.703 141.09C299.703 141.43 299.816 141.695 300.043 141.887C300.27 142.078 300.561 142.174 300.916 142.174ZM308.393 137.633C308.229 137.605 308.051 137.592 307.859 137.592C307.148 137.592 306.666 137.895 306.412 138.5V143H305.328V136.66H306.383L306.4 137.393C306.756 136.826 307.26 136.543 307.912 136.543C308.123 136.543 308.283 136.57 308.393 136.625V137.633ZM311.158 135.125V136.66H312.342V137.498H311.158V141.43C311.158 141.684 311.211 141.875 311.316 142.004C311.422 142.129 311.602 142.191 311.855 142.191C311.98 142.191 312.152 142.168 312.371 142.121V143C312.086 143.078 311.809 143.117 311.539 143.117C311.055 143.117 310.689 142.971 310.443 142.678C310.197 142.385 310.074 141.969 310.074 141.43V137.498H308.92V136.66H310.074V135.125H311.158ZM314.791 143H313.707V136.66H314.791V143ZM313.619 134.979C313.619 134.803 313.672 134.654 313.777 134.533C313.887 134.412 314.047 134.352 314.258 134.352C314.469 134.352 314.629 134.412 314.738 134.533C314.848 134.654 314.902 134.803 314.902 134.979C314.902 135.154 314.848 135.301 314.738 135.418C314.629 135.535 314.469 135.594 314.258 135.594C314.047 135.594 313.887 135.535 313.777 135.418C313.672 135.301 313.619 135.154 313.619 134.979ZM320.445 143C320.383 142.875 320.332 142.652 320.293 142.332C319.789 142.855 319.188 143.117 318.488 143.117C317.863 143.117 317.35 142.941 316.947 142.59C316.549 142.234 316.35 141.785 316.35 141.242C316.35 140.582 316.6 140.07 317.1 139.707C317.604 139.34 318.311 139.156 319.221 139.156H320.275V138.658C320.275 138.279 320.162 137.979 319.936 137.756C319.709 137.529 319.375 137.416 318.934 137.416C318.547 137.416 318.223 137.514 317.961 137.709C317.699 137.904 317.568 138.141 317.568 138.418H316.479C316.479 138.102 316.59 137.797 316.812 137.504C317.039 137.207 317.344 136.973 317.727 136.801C318.113 136.629 318.537 136.543 318.998 136.543C319.729 136.543 320.301 136.727 320.715 137.094C321.129 137.457 321.344 137.959 321.359 138.6V141.518C321.359 142.1 321.434 142.562 321.582 142.906V143H320.445ZM318.646 142.174C318.986 142.174 319.309 142.086 319.613 141.91C319.918 141.734 320.139 141.506 320.275 141.225V139.924H319.426C318.098 139.924 317.434 140.312 317.434 141.09C317.434 141.43 317.547 141.695 317.773 141.887C318 142.078 318.291 142.174 318.646 142.174ZM324.236 143H323.152V134H324.236V143ZM327.154 143H326.07V134H327.154V143ZM330.969 141.412L332.445 136.66H333.605L331.057 143.979C330.662 145.033 330.035 145.561 329.176 145.561L328.971 145.543L328.566 145.467V144.588L328.859 144.611C329.227 144.611 329.512 144.537 329.715 144.389C329.922 144.24 330.092 143.969 330.225 143.574L330.465 142.93L328.203 136.66H329.387L330.969 141.412ZM299.75 153.771C299.75 153.15 299.871 152.592 300.113 152.096C300.359 151.6 300.699 151.217 301.133 150.947C301.57 150.678 302.068 150.543 302.627 150.543C303.49 150.543 304.188 150.842 304.719 151.439C305.254 152.037 305.521 152.832 305.521 153.824V153.9C305.521 154.518 305.402 155.072 305.164 155.564C304.93 156.053 304.592 156.434 304.15 156.707C303.713 156.98 303.209 157.117 302.639 157.117C301.779 157.117 301.082 156.818 300.547 156.221C300.016 155.623 299.75 154.832 299.75 153.848V153.771ZM300.84 153.9C300.84 154.604 301.002 155.168 301.326 155.594C301.654 156.02 302.092 156.232 302.639 156.232C303.189 156.232 303.627 156.018 303.951 155.588C304.275 155.154 304.438 154.549 304.438 153.771C304.438 153.076 304.271 152.514 303.939 152.084C303.611 151.65 303.174 151.434 302.627 151.434C302.092 151.434 301.66 151.646 301.332 152.072C301.004 152.498 300.84 153.107 300.84 153.9ZM312.236 153.9C312.236 154.865 312.016 155.643 311.574 156.232C311.133 156.822 310.535 157.117 309.781 157.117C309.012 157.117 308.406 156.873 307.965 156.385V159.438H306.881V150.66H307.871L307.924 151.363C308.365 150.816 308.979 150.543 309.764 150.543C310.525 150.543 311.127 150.83 311.568 151.404C312.014 151.979 312.236 152.777 312.236 153.801V153.9ZM311.152 153.777C311.152 153.062 311 152.498 310.695 152.084C310.391 151.67 309.973 151.463 309.441 151.463C308.785 151.463 308.293 151.754 307.965 152.336V155.365C308.289 155.943 308.785 156.232 309.453 156.232C309.973 156.232 310.385 156.027 310.689 155.617C310.998 155.203 311.152 154.59 311.152 153.777ZM316.25 157.117C315.391 157.117 314.691 156.836 314.152 156.273C313.613 155.707 313.344 154.951 313.344 154.006V153.807C313.344 153.178 313.463 152.617 313.701 152.125C313.943 151.629 314.279 151.242 314.709 150.965C315.143 150.684 315.611 150.543 316.115 150.543C316.939 150.543 317.58 150.814 318.037 151.357C318.494 151.9 318.723 152.678 318.723 153.689V154.141H314.428C314.443 154.766 314.625 155.271 314.973 155.658C315.324 156.041 315.77 156.232 316.309 156.232C316.691 156.232 317.016 156.154 317.281 155.998C317.547 155.842 317.779 155.635 317.979 155.377L318.641 155.893C318.109 156.709 317.312 157.117 316.25 157.117ZM316.115 151.434C315.678 151.434 315.311 151.594 315.014 151.914C314.717 152.23 314.533 152.676 314.463 153.25H317.639V153.168C317.607 152.617 317.459 152.191 317.193 151.891C316.928 151.586 316.568 151.434 316.115 151.434ZM321.008 150.66L321.043 151.457C321.527 150.848 322.16 150.543 322.941 150.543C324.281 150.543 324.957 151.299 324.969 152.811V157H323.885V152.805C323.881 152.348 323.775 152.01 323.568 151.791C323.365 151.572 323.047 151.463 322.613 151.463C322.262 151.463 321.953 151.557 321.688 151.744C321.422 151.932 321.215 152.178 321.066 152.482V157H319.982V150.66H321.008Z" fill="#D4D4D4"/>
<path opacity="0.9" d="M310.682 125H293.912V122.662L302.771 112.818C304.084 111.33 304.986 110.123 305.479 109.197C305.982 108.26 306.234 107.293 306.234 106.297C306.234 104.961 305.83 103.865 305.021 103.01C304.213 102.154 303.135 101.727 301.787 101.727C300.17 101.727 298.91 102.189 298.008 103.115C297.117 104.029 296.672 105.307 296.672 106.947H293.42C293.42 104.592 294.176 102.688 295.688 101.234C297.211 99.7812 299.244 99.0547 301.787 99.0547C304.166 99.0547 306.047 99.6816 307.43 100.936C308.812 102.178 309.504 103.836 309.504 105.91C309.504 108.43 307.898 111.43 304.688 114.91L297.832 122.346H310.682V125ZM330.176 114.084C330.176 117.893 329.525 120.723 328.225 122.574C326.924 124.426 324.891 125.352 322.125 125.352C319.395 125.352 317.373 124.449 316.061 122.645C314.748 120.828 314.068 118.121 314.021 114.523V110.182C314.021 106.42 314.672 103.625 315.973 101.797C317.273 99.9688 319.312 99.0547 322.09 99.0547C324.844 99.0547 326.871 99.9395 328.172 101.709C329.473 103.467 330.141 106.186 330.176 109.865V114.084ZM326.924 109.637C326.924 106.883 326.537 104.879 325.764 103.625C324.99 102.359 323.766 101.727 322.09 101.727C320.426 101.727 319.213 102.354 318.451 103.607C317.689 104.861 317.297 106.789 317.273 109.391V114.594C317.273 117.359 317.672 119.404 318.469 120.729C319.277 122.041 320.496 122.697 322.125 122.697C323.73 122.697 324.92 122.076 325.693 120.834C326.479 119.592 326.889 117.635 326.924 114.963V109.637Z" fill="#F2EEDD"/>
</svg>
