<svg width="252" height="91" viewBox="0 0 252 91" fill="#444" xmlns="http://www.w3.org/2000/svg">
<g filter="url(#filter0_d)">
<path d="M57.3311 40H51.7646V12.9844H57.3311V40ZM76.5166 32.9121C76.5166 31.8607 76.1455 31.0566 75.4033 30.5C74.6611 29.931 73.3252 29.3372 71.3955 28.7188C69.4658 28.0879 67.9382 27.4694 66.8125 26.8633C63.7448 25.2057 62.2109 22.973 62.2109 20.165C62.2109 18.7054 62.6191 17.4066 63.4355 16.2686C64.2643 15.1182 65.4456 14.2214 66.9795 13.5781C68.5257 12.9349 70.2575 12.6133 72.1748 12.6133C74.1045 12.6133 75.8239 12.9658 77.333 13.6709C78.8421 14.3636 80.0111 15.347 80.8398 16.6211C81.681 17.8952 82.1016 19.3424 82.1016 20.9629H76.5352C76.5352 19.7259 76.1455 18.7673 75.3662 18.0869C74.5869 17.3942 73.4922 17.0479 72.082 17.0479C70.7214 17.0479 69.6637 17.3385 68.9092 17.9199C68.1546 18.4889 67.7773 19.2435 67.7773 20.1836C67.7773 21.0618 68.2165 21.7979 69.0947 22.3916C69.9854 22.9854 71.2904 23.542 73.0098 24.0615C76.1764 25.014 78.4834 26.1953 79.9307 27.6055C81.3779 29.0156 82.1016 30.7721 82.1016 32.875C82.1016 35.2129 81.2171 37.0498 79.4482 38.3857C77.6794 39.7093 75.2982 40.3711 72.3047 40.3711C70.2266 40.3711 68.334 39.9938 66.627 39.2393C64.9199 38.4723 63.6149 37.4271 62.7119 36.1035C61.8213 34.7799 61.376 33.2461 61.376 31.502H66.9609C66.9609 34.4831 68.7422 35.9736 72.3047 35.9736C73.6283 35.9736 74.6611 35.7077 75.4033 35.1758C76.1455 34.6315 76.5166 33.877 76.5166 32.9121ZM91.8057 40H86.2393V12.9844H91.8057V40ZM116.762 17.4932H108.486V40H102.92V17.4932H94.7559V12.9844H116.762V17.4932Z"/>
</g>
<g filter="url(#filter1_d)">
<path d="M80.8594 47.9844V65.7783C80.8594 68.7347 79.9316 71.0726 78.0762 72.792C76.2331 74.5114 73.7096 75.3711 70.5059 75.3711C67.3516 75.3711 64.8467 74.5361 62.9912 72.8662C61.1357 71.1963 60.1895 68.9017 60.1523 65.9824V47.9844H65.7188V65.8154C65.7188 67.5843 66.1393 68.877 66.9805 69.6934C67.834 70.4974 69.0091 70.8994 70.5059 70.8994C73.6354 70.8994 75.2249 69.2542 75.2744 65.9639V47.9844H80.8594ZM99.4326 67.9121C99.4326 66.8607 99.0615 66.0566 98.3193 65.5C97.5771 64.931 96.2412 64.3372 94.3115 63.7188C92.3818 63.0879 90.8542 62.4694 89.7285 61.8633C86.6608 60.2057 85.127 57.973 85.127 55.165C85.127 53.7054 85.5352 52.4066 86.3516 51.2686C87.1803 50.1182 88.3617 49.2214 89.8955 48.5781C91.4417 47.9349 93.1735 47.6133 95.0908 47.6133C97.0205 47.6133 98.7399 47.9658 100.249 48.6709C101.758 49.3636 102.927 50.347 103.756 51.6211C104.597 52.8952 105.018 54.3424 105.018 55.9629H99.4512C99.4512 54.7259 99.0615 53.7673 98.2822 53.0869C97.5029 52.3942 96.4082 52.0479 94.998 52.0479C93.6374 52.0479 92.5798 52.3385 91.8252 52.9199C91.0706 53.4889 90.6934 54.2435 90.6934 55.1836C90.6934 56.0618 91.1325 56.7979 92.0107 57.3916C92.9014 57.9854 94.2064 58.542 95.9258 59.0615C99.0924 60.014 101.399 61.1953 102.847 62.6055C104.294 64.0156 105.018 65.7721 105.018 67.875C105.018 70.2129 104.133 72.0498 102.364 73.3857C100.595 74.7093 98.2142 75.3711 95.2207 75.3711C93.1426 75.3711 91.25 74.9938 89.543 74.2393C87.8359 73.4723 86.5309 72.4271 85.6279 71.1035C84.7373 69.7799 84.292 68.2461 84.292 66.502H89.877C89.877 69.4831 91.6582 70.9736 95.2207 70.9736C96.5443 70.9736 97.5771 70.7077 98.3193 70.1758C99.0615 69.6315 99.4326 68.877 99.4326 67.9121ZM130.011 66.001C129.8 68.9079 128.724 71.1963 126.782 72.8662C124.853 74.5361 122.304 75.3711 119.138 75.3711C115.674 75.3711 112.947 74.2083 110.955 71.8828C108.976 69.5449 107.986 66.3411 107.986 62.2715V60.6201C107.986 58.0225 108.444 55.734 109.359 53.7549C110.275 51.7757 111.58 50.2604 113.274 49.209C114.981 48.1452 116.961 47.6133 119.212 47.6133C122.329 47.6133 124.84 48.4482 126.745 50.1182C128.65 51.7881 129.751 54.1322 130.048 57.1504H124.481C124.345 55.4062 123.857 54.1445 123.016 53.3652C122.187 52.5736 120.919 52.1777 119.212 52.1777C117.356 52.1777 115.965 52.8457 115.037 54.1816C114.122 55.5052 113.652 57.5648 113.627 60.3604V62.4014C113.627 65.3206 114.066 67.4544 114.944 68.8027C115.835 70.151 117.233 70.8252 119.138 70.8252C120.857 70.8252 122.137 70.4355 122.979 69.6562C123.832 68.8646 124.321 67.6462 124.444 66.001H130.011ZM155.653 75H150.087V63.4219H139.232V75H133.666V47.9844H139.232V58.9316H150.087V47.9844H155.653V75ZM181.574 67.207L185.211 47.9844H190.759L184.766 75H179.162L174.765 56.9277L170.367 75H164.764L158.771 47.9844H164.318L167.974 67.1699L172.427 47.9844H177.14L181.574 67.207ZM199.702 75H194.136V47.9844H199.702V75ZM224.658 52.4932H216.383V75H210.816V52.4932H202.652V47.9844H224.658V52.4932ZM233.75 70.5283H247.369V75H226.792V71.7344L240.151 52.4932H226.811V47.9844H247.072V51.1758L233.75 70.5283Z"/>
</g>
<g filter="url(#filter2_d)">
<path d="M194.661 39.1279C194.661 38.5215 194.863 38.0293 195.268 37.6514C195.681 37.2734 196.195 37.0845 196.81 37.0845C197.434 37.0845 197.948 37.2734 198.353 37.6514C198.766 38.0293 198.972 38.5215 198.972 39.1279C198.972 39.7256 198.77 40.2134 198.366 40.5913C197.961 40.9604 197.443 41.145 196.81 41.145C196.186 41.145 195.672 40.9604 195.268 40.5913C194.863 40.2134 194.661 39.7256 194.661 39.1279ZM206.342 41H202.519V26.7354H206.342V41ZM202.294 23.0439C202.294 22.4727 202.483 22.0024 202.861 21.6333C203.248 21.2642 203.771 21.0796 204.43 21.0796C205.081 21.0796 205.599 21.2642 205.986 21.6333C206.373 22.0024 206.566 22.4727 206.566 23.0439C206.566 23.624 206.368 24.0986 205.973 24.4678C205.586 24.8369 205.072 25.0215 204.43 25.0215C203.789 25.0215 203.27 24.8369 202.875 24.4678C202.488 24.0986 202.294 23.624 202.294 23.0439ZM213 26.7354L213.118 28.3833C214.138 27.1089 215.504 26.4717 217.218 26.4717C218.73 26.4717 219.855 26.9155 220.593 27.8032C221.332 28.6909 221.709 30.0181 221.727 31.7847V41H217.917V31.877C217.917 31.0684 217.741 30.4839 217.39 30.1235C217.038 29.7544 216.454 29.5698 215.636 29.5698C214.564 29.5698 213.76 30.0269 213.224 30.9409V41H209.414V26.7354H213ZM225.669 41V29.5303H223.546V26.7354H225.669V25.5225C225.669 23.9229 226.126 22.6836 227.04 21.8047C227.963 20.917 229.25 20.4731 230.903 20.4731C231.43 20.4731 232.076 20.561 232.841 20.7368L232.801 23.6899C232.485 23.6108 232.098 23.5713 231.641 23.5713C230.208 23.5713 229.492 24.2437 229.492 25.5884V26.7354H232.327V29.5303H229.492V41H225.669ZM233.711 33.7358C233.711 32.3208 233.983 31.0596 234.528 29.9521C235.073 28.8447 235.855 27.9878 236.875 27.3813C237.903 26.7749 239.094 26.4717 240.448 26.4717C242.373 26.4717 243.941 27.0605 245.154 28.2383C246.376 29.416 247.057 31.0156 247.198 33.0371L247.224 34.0127C247.224 36.2012 246.613 37.959 245.392 39.2861C244.17 40.6045 242.531 41.2637 240.474 41.2637C238.417 41.2637 236.774 40.6045 235.543 39.2861C234.322 37.9678 233.711 36.1748 233.711 33.9072V33.7358ZM237.521 34.0127C237.521 35.3662 237.776 36.4033 238.286 37.124C238.795 37.8359 239.525 38.1919 240.474 38.1919C241.397 38.1919 242.118 37.8403 242.636 37.1372C243.155 36.4253 243.414 35.2915 243.414 33.7358C243.414 32.4087 243.155 31.3804 242.636 30.6509C242.118 29.9214 241.388 29.5566 240.448 29.5566C239.516 29.5566 238.795 29.9214 238.286 30.6509C237.776 31.3716 237.521 32.4922 237.521 34.0127Z"/>
</g>
<g filter="url(#filter3_d)">
<path d="M27.2383 40.8555L40.2461 0.8125H50.0195L31.5977 52H22.9844L4.63281 0.8125H14.3711L27.2383 40.8555Z"/>
</g>
<g filter="url(#filter4_d)">
<path d="M44.8555 71.082H25.0273L20.8789 83H11.6328L30.9688 31.8125H38.9492L58.3203 83H49.0391L44.8555 71.082ZM27.5234 63.9102H42.3594L34.9414 42.6758L27.5234 63.9102Z"/>
</g>
<defs>
<filter id="filter0_d" x="47.7646" y="12.6133" width="72.9971" height="35.7578" filterUnits="userSpaceOnUse" color-interpolation-filters="sRGB">
<feFlood flood-opacity="0" result="BackgroundImageFix"/>
<feColorMatrix in="SourceAlpha" type="matrix" values="0 0 0 0 0 0 0 0 0 0 0 0 0 0 0 0 0 0 127 0"/>
<feOffset dy="4"/>
<feGaussianBlur stdDeviation="2"/>
<feColorMatrix type="matrix" values="0 0 0 0 0 0 0 0 0 0 0 0 0 0 0 0 0 0 0.25 0"/>
<feBlend mode="normal" in2="BackgroundImageFix" result="effect1_dropShadow"/>
<feBlend mode="normal" in="SourceGraphic" in2="effect1_dropShadow" result="shape"/>
</filter>
<filter id="filter1_d" x="56.1523" y="47.6133" width="195.217" height="35.7578" filterUnits="userSpaceOnUse" color-interpolation-filters="sRGB">
<feFlood flood-opacity="0" result="BackgroundImageFix"/>
<feColorMatrix in="SourceAlpha" type="matrix" values="0 0 0 0 0 0 0 0 0 0 0 0 0 0 0 0 0 0 127 0"/>
<feOffset dy="4"/>
<feGaussianBlur stdDeviation="2"/>
<feColorMatrix type="matrix" values="0 0 0 0 0 0 0 0 0 0 0 0 0 0 0 0 0 0 0.25 0"/>
<feBlend mode="normal" in2="BackgroundImageFix" result="effect1_dropShadow"/>
<feBlend mode="normal" in="SourceGraphic" in2="effect1_dropShadow" result="shape"/>
</filter>
<filter id="filter2_d" x="190.661" y="20.4731" width="60.563" height="28.7905" filterUnits="userSpaceOnUse" color-interpolation-filters="sRGB">
<feFlood flood-opacity="0" result="BackgroundImageFix"/>
<feColorMatrix in="SourceAlpha" type="matrix" values="0 0 0 0 0 0 0 0 0 0 0 0 0 0 0 0 0 0 127 0"/>
<feOffset dy="4"/>
<feGaussianBlur stdDeviation="2"/>
<feColorMatrix type="matrix" values="0 0 0 0 0 0 0 0 0 0 0 0 0 0 0 0 0 0 0.25 0"/>
<feBlend mode="normal" in2="BackgroundImageFix" result="effect1_dropShadow"/>
<feBlend mode="normal" in="SourceGraphic" in2="effect1_dropShadow" result="shape"/>
</filter>
<filter id="filter3_d" x="0.632812" y="0.8125" width="53.3867" height="59.1875" filterUnits="userSpaceOnUse" color-interpolation-filters="sRGB">
<feFlood flood-opacity="0" result="BackgroundImageFix"/>
<feColorMatrix in="SourceAlpha" type="matrix" values="0 0 0 0 0 0 0 0 0 0 0 0 0 0 0 0 0 0 127 0"/>
<feOffset dy="4"/>
<feGaussianBlur stdDeviation="2"/>
<feColorMatrix type="matrix" values="0 0 0 0 0 0 0 0 0 0 0 0 0 0 0 0 0 0 0.25 0"/>
<feBlend mode="normal" in2="BackgroundImageFix" result="effect1_dropShadow"/>
<feBlend mode="normal" in="SourceGraphic" in2="effect1_dropShadow" result="shape"/>
</filter>
<filter id="filter4_d" x="7.63281" y="31.8125" width="54.6875" height="59.1875" filterUnits="userSpaceOnUse" color-interpolation-filters="sRGB">
<feFlood flood-opacity="0" result="BackgroundImageFix"/>
<feColorMatrix in="SourceAlpha" type="matrix" values="0 0 0 0 0 0 0 0 0 0 0 0 0 0 0 0 0 0 127 0"/>
<feOffset dy="4"/>
<feGaussianBlur stdDeviation="2"/>
<feColorMatrix type="matrix" values="0 0 0 0 0 0 0 0 0 0 0 0 0 0 0 0 0 0 0.25 0"/>
<feBlend mode="normal" in2="BackgroundImageFix" result="effect1_dropShadow"/>
<feBlend mode="normal" in="SourceGraphic" in2="effect1_dropShadow" result="shape"/>
</filter>
</defs>
</svg>
